<mxfile host="65bd71144e">
    <diagram id="sAlmQY1YONvTenHc_NBy" name="tree-v1">
        <mxGraphModel dx="785" dy="924" grid="0" gridSize="10" guides="1" tooltips="1" connect="1" arrows="1" fold="1" page="1" pageScale="1" pageWidth="1654" pageHeight="1169" background="#ffffff" math="0" shadow="0">
            <root>
                <mxCell id="0So7Woajs3jKrN6fD4Gb-0"/>
                <mxCell id="0So7Woajs3jKrN6fD4Gb-1" parent="0So7Woajs3jKrN6fD4Gb-0"/>
                <mxCell id="0So7Woajs3jKrN6fD4Gb-71" value="SocialMedia" style="swimlane;fontStyle=0;childLayout=stackLayout;horizontal=1;startSize=26;horizontalStack=0;resizeParent=1;resizeParentMax=0;resizeLast=0;collapsible=1;marginBottom=0;align=center;fontSize=14;labelBackgroundColor=none;fontColor=#FFFFFF;strokeColor=#333333;" parent="0So7Woajs3jKrN6fD4Gb-1" vertex="1">
                    <mxGeometry x="1101" y="876" width="170" height="146" as="geometry"/>
                </mxCell>
                <mxCell id="0So7Woajs3jKrN6fD4Gb-72" value="Props: " style="text;strokeColor=none;fillColor=none;spacingLeft=4;spacingRight=4;overflow=hidden;rotatable=0;points=[[0,0.5],[1,0.5]];portConstraint=eastwest;fontSize=12;labelBackgroundColor=none;fontColor=#009900;fontStyle=1" parent="0So7Woajs3jKrN6fD4Gb-71" vertex="1">
                    <mxGeometry y="26" width="170" height="30" as="geometry"/>
                </mxCell>
                <mxCell id="0So7Woajs3jKrN6fD4Gb-73" value="State: " style="text;strokeColor=none;fillColor=none;spacingLeft=4;spacingRight=4;overflow=hidden;rotatable=0;points=[[0,0.5],[1,0.5]];portConstraint=eastwest;fontSize=12;labelBackgroundColor=none;fontColor=#FF8000;fontStyle=1" parent="0So7Woajs3jKrN6fD4Gb-71" vertex="1">
                    <mxGeometry y="56" width="170" height="30" as="geometry"/>
                </mxCell>
                <mxCell id="0So7Woajs3jKrN6fD4Gb-74" value="APIs: " style="text;strokeColor=none;fillColor=none;spacingLeft=4;spacingRight=4;overflow=hidden;rotatable=0;points=[[0,0.5],[1,0.5]];portConstraint=eastwest;fontSize=12;labelBackgroundColor=none;fontColor=#3333FF;fontStyle=1" parent="0So7Woajs3jKrN6fD4Gb-71" vertex="1">
                    <mxGeometry y="86" width="170" height="30" as="geometry"/>
                </mxCell>
                <mxCell id="0So7Woajs3jKrN6fD4Gb-119" value="Params: " style="text;strokeColor=none;fillColor=none;spacingLeft=4;spacingRight=4;overflow=hidden;rotatable=0;points=[[0,0.5],[1,0.5]];portConstraint=eastwest;fontSize=12;labelBackgroundColor=none;fontColor=#CC0066;fontStyle=1" parent="0So7Woajs3jKrN6fD4Gb-71" vertex="1">
                    <mxGeometry y="116" width="170" height="30" as="geometry"/>
                </mxCell>
                <mxCell id="0So7Woajs3jKrN6fD4Gb-83" value="" style="edgeStyle=elbowEdgeStyle;elbow=vertical;html=1;rounded=0;endArrow=ERmany;endFill=0;endSize=50;entryX=0.5;entryY=0;entryDx=0;entryDy=0;labelBackgroundColor=none;fontColor=#333333;strokeColor=#333333;exitX=0.82;exitY=1.113;exitDx=0;exitDy=0;exitPerimeter=0;" parent="0So7Woajs3jKrN6fD4Gb-1" source="0So7Woajs3jKrN6fD4Gb-134" target="0So7Woajs3jKrN6fD4Gb-125" edge="1">
                    <mxGeometry relative="1" as="geometry">
                        <mxPoint x="1004.4899999999998" y="621.21" as="sourcePoint"/>
                        <mxPoint x="978" y="866" as="targetPoint"/>
                        <Array as="points">
                            <mxPoint x="1210" y="677"/>
                            <mxPoint x="944" y="817"/>
                            <mxPoint x="1488" y="805"/>
                            <mxPoint x="1318" y="785"/>
                            <mxPoint x="1448" y="766"/>
                            <mxPoint x="1378" y="846"/>
                        </Array>
                    </mxGeometry>
                </mxCell>
                <mxCell id="0So7Woajs3jKrN6fD4Gb-99" value="" style="edgeStyle=elbowEdgeStyle;elbow=vertical;html=1;rounded=0;endArrow=none;endFill=0;endSize=50;entryX=0.5;entryY=0;entryDx=0;entryDy=0;labelBackgroundColor=none;fontColor=#333333;strokeColor=#333333;exitX=0.198;exitY=1.18;exitDx=0;exitDy=0;exitPerimeter=0;" parent="0So7Woajs3jKrN6fD4Gb-1" source="0So7Woajs3jKrN6fD4Gb-134" target="0So7Woajs3jKrN6fD4Gb-120" edge="1">
                    <mxGeometry relative="1" as="geometry">
                        <mxPoint x="903" y="638" as="sourcePoint"/>
                        <mxPoint x="1043" y="875" as="targetPoint"/>
                        <Array as="points">
                            <mxPoint x="903" y="757"/>
                            <mxPoint x="1648" y="835"/>
                            <mxPoint x="1508" y="806"/>
                            <mxPoint x="1388" y="856"/>
                        </Array>
                    </mxGeometry>
                </mxCell>
                <mxCell id="0So7Woajs3jKrN6fD4Gb-120" value="SubHeader" style="swimlane;fontStyle=0;childLayout=stackLayout;horizontal=1;startSize=26;horizontalStack=0;resizeParent=1;resizeParentMax=0;resizeLast=0;collapsible=1;marginBottom=0;align=center;fontSize=14;labelBackgroundColor=none;fontColor=#FFFFFF;strokeColor=#333333;" parent="0So7Woajs3jKrN6fD4Gb-1" vertex="1">
                    <mxGeometry x="821" y="876" width="170" height="146" as="geometry"/>
                </mxCell>
                <mxCell id="0So7Woajs3jKrN6fD4Gb-121" value="Props: " style="text;strokeColor=none;fillColor=none;spacingLeft=4;spacingRight=4;overflow=hidden;rotatable=0;points=[[0,0.5],[1,0.5]];portConstraint=eastwest;fontSize=12;labelBackgroundColor=none;fontColor=#009900;fontStyle=1" parent="0So7Woajs3jKrN6fD4Gb-120" vertex="1">
                    <mxGeometry y="26" width="170" height="30" as="geometry"/>
                </mxCell>
                <mxCell id="0So7Woajs3jKrN6fD4Gb-122" value="State: " style="text;strokeColor=none;fillColor=none;spacingLeft=4;spacingRight=4;overflow=hidden;rotatable=0;points=[[0,0.5],[1,0.5]];portConstraint=eastwest;fontSize=12;labelBackgroundColor=none;fontColor=#FF8000;fontStyle=1" parent="0So7Woajs3jKrN6fD4Gb-120" vertex="1">
                    <mxGeometry y="56" width="170" height="30" as="geometry"/>
                </mxCell>
                <mxCell id="0So7Woajs3jKrN6fD4Gb-123" value="APIs: " style="text;strokeColor=none;fillColor=none;spacingLeft=4;spacingRight=4;overflow=hidden;rotatable=0;points=[[0,0.5],[1,0.5]];portConstraint=eastwest;fontSize=12;labelBackgroundColor=none;fontColor=#3333FF;fontStyle=1" parent="0So7Woajs3jKrN6fD4Gb-120" vertex="1">
                    <mxGeometry y="86" width="170" height="30" as="geometry"/>
                </mxCell>
                <mxCell id="0So7Woajs3jKrN6fD4Gb-124" value="Params: " style="text;strokeColor=none;fillColor=none;spacingLeft=4;spacingRight=4;overflow=hidden;rotatable=0;points=[[0,0.5],[1,0.5]];portConstraint=eastwest;fontSize=12;labelBackgroundColor=none;fontColor=#CC0066;fontStyle=1" parent="0So7Woajs3jKrN6fD4Gb-120" vertex="1">
                    <mxGeometry y="116" width="170" height="30" as="geometry"/>
                </mxCell>
                <mxCell id="0So7Woajs3jKrN6fD4Gb-125" value="Info" style="swimlane;fontStyle=0;childLayout=stackLayout;horizontal=1;startSize=26;horizontalStack=0;resizeParent=1;resizeParentMax=0;resizeLast=0;collapsible=1;marginBottom=0;align=center;fontSize=14;labelBackgroundColor=none;fontColor=#FFFFFF;strokeColor=#333333;" parent="0So7Woajs3jKrN6fD4Gb-1" vertex="1">
                    <mxGeometry x="1375" y="876" width="170" height="146" as="geometry"/>
                </mxCell>
                <mxCell id="0So7Woajs3jKrN6fD4Gb-126" value="Props: " style="text;strokeColor=none;fillColor=none;spacingLeft=4;spacingRight=4;overflow=hidden;rotatable=0;points=[[0,0.5],[1,0.5]];portConstraint=eastwest;fontSize=12;labelBackgroundColor=none;fontColor=#009900;fontStyle=1" parent="0So7Woajs3jKrN6fD4Gb-125" vertex="1">
                    <mxGeometry y="26" width="170" height="30" as="geometry"/>
                </mxCell>
                <mxCell id="0So7Woajs3jKrN6fD4Gb-127" value="State: " style="text;strokeColor=none;fillColor=none;spacingLeft=4;spacingRight=4;overflow=hidden;rotatable=0;points=[[0,0.5],[1,0.5]];portConstraint=eastwest;fontSize=12;labelBackgroundColor=none;fontColor=#FF8000;fontStyle=1" parent="0So7Woajs3jKrN6fD4Gb-125" vertex="1">
                    <mxGeometry y="56" width="170" height="30" as="geometry"/>
                </mxCell>
                <mxCell id="0So7Woajs3jKrN6fD4Gb-128" value="APIs: " style="text;strokeColor=none;fillColor=none;spacingLeft=4;spacingRight=4;overflow=hidden;rotatable=0;points=[[0,0.5],[1,0.5]];portConstraint=eastwest;fontSize=12;labelBackgroundColor=none;fontColor=#3333FF;fontStyle=1" parent="0So7Woajs3jKrN6fD4Gb-125" vertex="1">
                    <mxGeometry y="86" width="170" height="30" as="geometry"/>
                </mxCell>
                <mxCell id="0So7Woajs3jKrN6fD4Gb-129" value="Params: " style="text;strokeColor=none;fillColor=none;spacingLeft=4;spacingRight=4;overflow=hidden;rotatable=0;points=[[0,0.5],[1,0.5]];portConstraint=eastwest;fontSize=12;labelBackgroundColor=none;fontColor=#CC0066;fontStyle=1" parent="0So7Woajs3jKrN6fD4Gb-125" vertex="1">
                    <mxGeometry y="116" width="170" height="30" as="geometry"/>
                </mxCell>
                <mxCell id="0So7Woajs3jKrN6fD4Gb-130" value="Display" style="swimlane;fontStyle=0;childLayout=stackLayout;horizontal=1;startSize=26;horizontalStack=0;resizeParent=1;resizeParentMax=0;resizeLast=0;collapsible=1;marginBottom=0;align=center;fontSize=14;labelBackgroundColor=none;fontColor=#FFFFFF;strokeColor=#333333;" parent="0So7Woajs3jKrN6fD4Gb-1" vertex="1">
                    <mxGeometry x="874" y="463" width="170" height="146" as="geometry"/>
                </mxCell>
                <mxCell id="0So7Woajs3jKrN6fD4Gb-131" value="Props: " style="text;strokeColor=none;fillColor=none;spacingLeft=4;spacingRight=4;overflow=hidden;rotatable=0;points=[[0,0.5],[1,0.5]];portConstraint=eastwest;fontSize=12;labelBackgroundColor=none;fontColor=#009900;fontStyle=1" parent="0So7Woajs3jKrN6fD4Gb-130" vertex="1">
                    <mxGeometry y="26" width="170" height="30" as="geometry"/>
                </mxCell>
                <mxCell id="0So7Woajs3jKrN6fD4Gb-132" value="State: " style="text;strokeColor=none;fillColor=none;spacingLeft=4;spacingRight=4;overflow=hidden;rotatable=0;points=[[0,0.5],[1,0.5]];portConstraint=eastwest;fontSize=12;labelBackgroundColor=none;fontColor=#FF8000;fontStyle=1" parent="0So7Woajs3jKrN6fD4Gb-130" vertex="1">
                    <mxGeometry y="56" width="170" height="30" as="geometry"/>
                </mxCell>
                <mxCell id="0So7Woajs3jKrN6fD4Gb-133" value="APIs: " style="text;strokeColor=none;fillColor=none;spacingLeft=4;spacingRight=4;overflow=hidden;rotatable=0;points=[[0,0.5],[1,0.5]];portConstraint=eastwest;fontSize=12;labelBackgroundColor=none;fontColor=#3333FF;fontStyle=1" parent="0So7Woajs3jKrN6fD4Gb-130" vertex="1">
                    <mxGeometry y="86" width="170" height="30" as="geometry"/>
                </mxCell>
                <mxCell id="0So7Woajs3jKrN6fD4Gb-134" value="Params: " style="text;strokeColor=none;fillColor=none;spacingLeft=4;spacingRight=4;overflow=hidden;rotatable=0;points=[[0,0.5],[1,0.5]];portConstraint=eastwest;fontSize=12;labelBackgroundColor=none;fontColor=#CC0066;fontStyle=1" parent="0So7Woajs3jKrN6fD4Gb-130" vertex="1">
                    <mxGeometry y="116" width="170" height="30" as="geometry"/>
                </mxCell>
                <mxCell id="0So7Woajs3jKrN6fD4Gb-135" value="Selector" style="swimlane;fontStyle=0;childLayout=stackLayout;horizontal=1;startSize=26;horizontalStack=0;resizeParent=1;resizeParentMax=0;resizeLast=0;collapsible=1;marginBottom=0;align=center;fontSize=14;labelBackgroundColor=none;fontColor=#FFFFFF;strokeColor=#333333;" parent="0So7Woajs3jKrN6fD4Gb-1" vertex="1">
                    <mxGeometry x="423" y="463" width="170" height="146" as="geometry"/>
                </mxCell>
                <mxCell id="0So7Woajs3jKrN6fD4Gb-136" value="Props: handleClick" style="text;strokeColor=none;fillColor=none;spacingLeft=4;spacingRight=4;overflow=hidden;rotatable=0;points=[[0,0.5],[1,0.5]];portConstraint=eastwest;fontSize=12;labelBackgroundColor=none;fontColor=#009900;fontStyle=1" parent="0So7Woajs3jKrN6fD4Gb-135" vertex="1">
                    <mxGeometry y="26" width="170" height="30" as="geometry"/>
                </mxCell>
                <mxCell id="0So7Woajs3jKrN6fD4Gb-137" value="State: " style="text;strokeColor=none;fillColor=none;spacingLeft=4;spacingRight=4;overflow=hidden;rotatable=0;points=[[0,0.5],[1,0.5]];portConstraint=eastwest;fontSize=12;labelBackgroundColor=none;fontColor=#FF8000;fontStyle=1" parent="0So7Woajs3jKrN6fD4Gb-135" vertex="1">
                    <mxGeometry y="56" width="170" height="30" as="geometry"/>
                </mxCell>
                <mxCell id="0So7Woajs3jKrN6fD4Gb-138" value="APIs: " style="text;strokeColor=none;fillColor=none;spacingLeft=4;spacingRight=4;overflow=hidden;rotatable=0;points=[[0,0.5],[1,0.5]];portConstraint=eastwest;fontSize=12;labelBackgroundColor=none;fontColor=#3333FF;fontStyle=1" parent="0So7Woajs3jKrN6fD4Gb-135" vertex="1">
                    <mxGeometry y="86" width="170" height="30" as="geometry"/>
                </mxCell>
                <mxCell id="0So7Woajs3jKrN6fD4Gb-139" value="Params: " style="text;strokeColor=none;fillColor=none;spacingLeft=4;spacingRight=4;overflow=hidden;rotatable=0;points=[[0,0.5],[1,0.5]];portConstraint=eastwest;fontSize=12;labelBackgroundColor=none;fontColor=#CC0066;fontStyle=1" parent="0So7Woajs3jKrN6fD4Gb-135" vertex="1">
                    <mxGeometry y="116" width="170" height="30" as="geometry"/>
                </mxCell>
                <mxCell id="0So7Woajs3jKrN6fD4Gb-140" value="App" style="swimlane;fontStyle=0;childLayout=stackLayout;horizontal=1;startSize=26;horizontalStack=0;resizeParent=1;resizeParentMax=0;resizeLast=0;collapsible=1;marginBottom=0;align=center;fontSize=14;labelBackgroundColor=none;fontColor=#FFFFFF;strokeColor=#333333;" parent="0So7Woajs3jKrN6fD4Gb-1" vertex="1">
                    <mxGeometry x="591" y="85" width="170" height="146" as="geometry"/>
                </mxCell>
                <mxCell id="0So7Woajs3jKrN6fD4Gb-141" value="Props:  none" style="text;strokeColor=none;fillColor=none;spacingLeft=4;spacingRight=4;overflow=hidden;rotatable=0;points=[[0,0.5],[1,0.5]];portConstraint=eastwest;fontSize=12;labelBackgroundColor=none;fontColor=#009900;fontStyle=1" parent="0So7Woajs3jKrN6fD4Gb-140" vertex="1">
                    <mxGeometry y="26" width="170" height="30" as="geometry"/>
                </mxCell>
                <mxCell id="0So7Woajs3jKrN6fD4Gb-142" value="State:  [add here]" style="text;strokeColor=none;fillColor=none;spacingLeft=4;spacingRight=4;overflow=hidden;rotatable=0;points=[[0,0.5],[1,0.5]];portConstraint=eastwest;fontSize=12;labelBackgroundColor=none;fontColor=#FF8000;fontStyle=1" parent="0So7Woajs3jKrN6fD4Gb-140" vertex="1">
                    <mxGeometry y="56" width="170" height="30" as="geometry"/>
                </mxCell>
                <mxCell id="0So7Woajs3jKrN6fD4Gb-143" value="APIs:  [add here]" style="text;strokeColor=none;fillColor=none;spacingLeft=4;spacingRight=4;overflow=hidden;rotatable=0;points=[[0,0.5],[1,0.5]];portConstraint=eastwest;fontSize=12;labelBackgroundColor=none;fontColor=#3333FF;fontStyle=1" parent="0So7Woajs3jKrN6fD4Gb-140" vertex="1">
                    <mxGeometry y="86" width="170" height="30" as="geometry"/>
                </mxCell>
                <mxCell id="0So7Woajs3jKrN6fD4Gb-144" value="Params: " style="text;strokeColor=none;fillColor=none;spacingLeft=4;spacingRight=4;overflow=hidden;rotatable=0;points=[[0,0.5],[1,0.5]];portConstraint=eastwest;fontSize=12;labelBackgroundColor=none;fontColor=#CC0066;fontStyle=1" parent="0So7Woajs3jKrN6fD4Gb-140" vertex="1">
                    <mxGeometry y="116" width="170" height="30" as="geometry"/>
                </mxCell>
                <mxCell id="0So7Woajs3jKrN6fD4Gb-145" value="Footer" style="swimlane;fontStyle=0;childLayout=stackLayout;horizontal=1;startSize=26;horizontalStack=0;resizeParent=1;resizeParentMax=0;resizeLast=0;collapsible=1;marginBottom=0;align=center;fontSize=14;labelBackgroundColor=none;fontColor=#FFFFFF;strokeColor=#333333;" parent="0So7Woajs3jKrN6fD4Gb-1" vertex="1">
                    <mxGeometry x="1386" y="463" width="170" height="146" as="geometry"/>
                </mxCell>
                <mxCell id="0So7Woajs3jKrN6fD4Gb-146" value="Props: " style="text;strokeColor=none;fillColor=none;spacingLeft=4;spacingRight=4;overflow=hidden;rotatable=0;points=[[0,0.5],[1,0.5]];portConstraint=eastwest;fontSize=12;labelBackgroundColor=none;fontColor=#009900;fontStyle=1" parent="0So7Woajs3jKrN6fD4Gb-145" vertex="1">
                    <mxGeometry y="26" width="170" height="30" as="geometry"/>
                </mxCell>
                <mxCell id="0So7Woajs3jKrN6fD4Gb-147" value="State: " style="text;strokeColor=none;fillColor=none;spacingLeft=4;spacingRight=4;overflow=hidden;rotatable=0;points=[[0,0.5],[1,0.5]];portConstraint=eastwest;fontSize=12;labelBackgroundColor=none;fontColor=#FF8000;fontStyle=1" parent="0So7Woajs3jKrN6fD4Gb-145" vertex="1">
                    <mxGeometry y="56" width="170" height="30" as="geometry"/>
                </mxCell>
                <mxCell id="0So7Woajs3jKrN6fD4Gb-148" value="APIs: " style="text;strokeColor=none;fillColor=none;spacingLeft=4;spacingRight=4;overflow=hidden;rotatable=0;points=[[0,0.5],[1,0.5]];portConstraint=eastwest;fontSize=12;labelBackgroundColor=none;fontColor=#3333FF;fontStyle=1" parent="0So7Woajs3jKrN6fD4Gb-145" vertex="1">
                    <mxGeometry y="86" width="170" height="30" as="geometry"/>
                </mxCell>
                <mxCell id="0So7Woajs3jKrN6fD4Gb-149" value="Params: " style="text;strokeColor=none;fillColor=none;spacingLeft=4;spacingRight=4;overflow=hidden;rotatable=0;points=[[0,0.5],[1,0.5]];portConstraint=eastwest;fontSize=12;labelBackgroundColor=none;fontColor=#CC0066;fontStyle=1" parent="0So7Woajs3jKrN6fD4Gb-145" vertex="1">
                    <mxGeometry y="116" width="170" height="30" as="geometry"/>
                </mxCell>
                <mxCell id="0So7Woajs3jKrN6fD4Gb-150" value="Header" style="swimlane;fontStyle=0;childLayout=stackLayout;horizontal=1;startSize=26;horizontalStack=0;resizeParent=1;resizeParentMax=0;resizeLast=0;collapsible=1;marginBottom=0;align=center;fontSize=14;labelBackgroundColor=none;fontColor=#FFFFFF;strokeColor=#333333;" parent="0So7Woajs3jKrN6fD4Gb-1" vertex="1">
                    <mxGeometry x="18" y="876" width="170" height="146" as="geometry"/>
                </mxCell>
                <mxCell id="0So7Woajs3jKrN6fD4Gb-151" value="Props: " style="text;strokeColor=none;fillColor=none;spacingLeft=4;spacingRight=4;overflow=hidden;rotatable=0;points=[[0,0.5],[1,0.5]];portConstraint=eastwest;fontSize=12;labelBackgroundColor=none;fontColor=#009900;fontStyle=1" parent="0So7Woajs3jKrN6fD4Gb-150" vertex="1">
                    <mxGeometry y="26" width="170" height="30" as="geometry"/>
                </mxCell>
                <mxCell id="0So7Woajs3jKrN6fD4Gb-152" value="State: " style="text;strokeColor=none;fillColor=none;spacingLeft=4;spacingRight=4;overflow=hidden;rotatable=0;points=[[0,0.5],[1,0.5]];portConstraint=eastwest;fontSize=12;labelBackgroundColor=none;fontColor=#FF8000;fontStyle=1" parent="0So7Woajs3jKrN6fD4Gb-150" vertex="1">
                    <mxGeometry y="56" width="170" height="30" as="geometry"/>
                </mxCell>
                <mxCell id="0So7Woajs3jKrN6fD4Gb-153" value="APIs: " style="text;strokeColor=none;fillColor=none;spacingLeft=4;spacingRight=4;overflow=hidden;rotatable=0;points=[[0,0.5],[1,0.5]];portConstraint=eastwest;fontSize=12;labelBackgroundColor=none;fontColor=#3333FF;fontStyle=1" parent="0So7Woajs3jKrN6fD4Gb-150" vertex="1">
                    <mxGeometry y="86" width="170" height="30" as="geometry"/>
                </mxCell>
                <mxCell id="0So7Woajs3jKrN6fD4Gb-154" value="Params: " style="text;strokeColor=none;fillColor=none;spacingLeft=4;spacingRight=4;overflow=hidden;rotatable=0;points=[[0,0.5],[1,0.5]];portConstraint=eastwest;fontSize=12;labelBackgroundColor=none;fontColor=#CC0066;fontStyle=1" parent="0So7Woajs3jKrN6fD4Gb-150" vertex="1">
                    <mxGeometry y="116" width="170" height="30" as="geometry"/>
                </mxCell>
                <mxCell id="0So7Woajs3jKrN6fD4Gb-155" value="Filter(s)" style="swimlane;fontStyle=0;childLayout=stackLayout;horizontal=1;startSize=26;horizontalStack=0;resizeParent=1;resizeParentMax=0;resizeLast=0;collapsible=1;marginBottom=0;align=center;fontSize=14;labelBackgroundColor=none;fontColor=#FFFFFF;strokeColor=#333333;" parent="0So7Woajs3jKrN6fD4Gb-1" vertex="1">
                    <mxGeometry x="276" y="876" width="170" height="146" as="geometry"/>
                </mxCell>
                <mxCell id="0So7Woajs3jKrN6fD4Gb-156" value="Props: " style="text;strokeColor=none;fillColor=none;spacingLeft=4;spacingRight=4;overflow=hidden;rotatable=0;points=[[0,0.5],[1,0.5]];portConstraint=eastwest;fontSize=12;labelBackgroundColor=none;fontColor=#009900;fontStyle=1" parent="0So7Woajs3jKrN6fD4Gb-155" vertex="1">
                    <mxGeometry y="26" width="170" height="30" as="geometry"/>
                </mxCell>
                <mxCell id="0So7Woajs3jKrN6fD4Gb-157" value="State: " style="text;strokeColor=none;fillColor=none;spacingLeft=4;spacingRight=4;overflow=hidden;rotatable=0;points=[[0,0.5],[1,0.5]];portConstraint=eastwest;fontSize=12;labelBackgroundColor=none;fontColor=#FF8000;fontStyle=1" parent="0So7Woajs3jKrN6fD4Gb-155" vertex="1">
                    <mxGeometry y="56" width="170" height="30" as="geometry"/>
                </mxCell>
                <mxCell id="0So7Woajs3jKrN6fD4Gb-158" value="APIs: " style="text;strokeColor=none;fillColor=none;spacingLeft=4;spacingRight=4;overflow=hidden;rotatable=0;points=[[0,0.5],[1,0.5]];portConstraint=eastwest;fontSize=12;labelBackgroundColor=none;fontColor=#3333FF;fontStyle=1" parent="0So7Woajs3jKrN6fD4Gb-155" vertex="1">
                    <mxGeometry y="86" width="170" height="30" as="geometry"/>
                </mxCell>
                <mxCell id="0So7Woajs3jKrN6fD4Gb-159" value="Params: " style="text;strokeColor=none;fillColor=none;spacingLeft=4;spacingRight=4;overflow=hidden;rotatable=0;points=[[0,0.5],[1,0.5]];portConstraint=eastwest;fontSize=12;labelBackgroundColor=none;fontColor=#CC0066;fontStyle=1" parent="0So7Woajs3jKrN6fD4Gb-155" vertex="1">
                    <mxGeometry y="116" width="170" height="30" as="geometry"/>
                </mxCell>
                <mxCell id="0So7Woajs3jKrN6fD4Gb-160" value="FindHoliday" style="swimlane;fontStyle=0;childLayout=stackLayout;horizontal=1;startSize=26;horizontalStack=0;resizeParent=1;resizeParentMax=0;resizeLast=0;collapsible=1;marginBottom=0;align=center;fontSize=14;labelBackgroundColor=none;fontColor=#FFFFFF;strokeColor=#333333;" parent="0So7Woajs3jKrN6fD4Gb-1" vertex="1">
                    <mxGeometry x="529" y="876" width="170" height="146" as="geometry"/>
                </mxCell>
                <mxCell id="0So7Woajs3jKrN6fD4Gb-161" value="Props: handleClick" style="text;strokeColor=none;fillColor=none;spacingLeft=4;spacingRight=4;overflow=hidden;rotatable=0;points=[[0,0.5],[1,0.5]];portConstraint=eastwest;fontSize=12;labelBackgroundColor=none;fontColor=#009900;fontStyle=1" parent="0So7Woajs3jKrN6fD4Gb-160" vertex="1">
                    <mxGeometry y="26" width="170" height="30" as="geometry"/>
                </mxCell>
                <mxCell id="0So7Woajs3jKrN6fD4Gb-162" value="State: " style="text;strokeColor=none;fillColor=none;spacingLeft=4;spacingRight=4;overflow=hidden;rotatable=0;points=[[0,0.5],[1,0.5]];portConstraint=eastwest;fontSize=12;labelBackgroundColor=none;fontColor=#FF8000;fontStyle=1" parent="0So7Woajs3jKrN6fD4Gb-160" vertex="1">
                    <mxGeometry y="56" width="170" height="30" as="geometry"/>
                </mxCell>
                <mxCell id="0So7Woajs3jKrN6fD4Gb-163" value="APIs: " style="text;strokeColor=none;fillColor=none;spacingLeft=4;spacingRight=4;overflow=hidden;rotatable=0;points=[[0,0.5],[1,0.5]];portConstraint=eastwest;fontSize=12;labelBackgroundColor=none;fontColor=#3333FF;fontStyle=1" parent="0So7Woajs3jKrN6fD4Gb-160" vertex="1">
                    <mxGeometry y="86" width="170" height="30" as="geometry"/>
                </mxCell>
                <mxCell id="0So7Woajs3jKrN6fD4Gb-164" value="Params: " style="text;strokeColor=none;fillColor=none;spacingLeft=4;spacingRight=4;overflow=hidden;rotatable=0;points=[[0,0.5],[1,0.5]];portConstraint=eastwest;fontSize=12;labelBackgroundColor=none;fontColor=#CC0066;fontStyle=1" parent="0So7Woajs3jKrN6fD4Gb-160" vertex="1">
                    <mxGeometry y="116" width="170" height="30" as="geometry"/>
                </mxCell>
                <mxCell id="0So7Woajs3jKrN6fD4Gb-165" value="" style="edgeStyle=elbowEdgeStyle;elbow=vertical;html=1;rounded=0;endArrow=none;endFill=0;endSize=50;entryX=0.186;entryY=1.146;entryDx=0;entryDy=0;labelBackgroundColor=none;fontColor=#333333;strokeColor=#333333;exitX=0.5;exitY=0;exitDx=0;exitDy=0;entryPerimeter=0;" parent="0So7Woajs3jKrN6fD4Gb-1" source="0So7Woajs3jKrN6fD4Gb-150" target="0So7Woajs3jKrN6fD4Gb-139" edge="1">
                    <mxGeometry relative="1" as="geometry">
                        <mxPoint x="971.6599999999999" y="631.3999999999999" as="sourcePoint"/>
                        <mxPoint x="975" y="888.9999999999998" as="targetPoint"/>
                        <Array as="points">
                            <mxPoint x="432" y="657"/>
                            <mxPoint x="417" y="679"/>
                            <mxPoint x="203" y="745"/>
                            <mxPoint x="975" y="767"/>
                            <mxPoint x="1720" y="845"/>
                            <mxPoint x="1580" y="816"/>
                            <mxPoint x="1460" y="866"/>
                        </Array>
                    </mxGeometry>
                </mxCell>
                <mxCell id="0So7Woajs3jKrN6fD4Gb-167" value="" style="edgeStyle=elbowEdgeStyle;elbow=vertical;html=1;rounded=0;endArrow=none;endFill=0;endSize=50;labelBackgroundColor=none;fontColor=#333333;strokeColor=#333333;exitX=0.5;exitY=0;exitDx=0;exitDy=0;" parent="0So7Woajs3jKrN6fD4Gb-1" source="0So7Woajs3jKrN6fD4Gb-155" target="0So7Woajs3jKrN6fD4Gb-139" edge="1">
                    <mxGeometry relative="1" as="geometry">
                        <mxPoint x="113" y="885.9999999999998" as="sourcePoint"/>
                        <mxPoint x="497.60000000000014" y="623.02" as="targetPoint"/>
                        <Array as="points">
                            <mxPoint x="508" y="791"/>
                            <mxPoint x="213" y="755"/>
                            <mxPoint x="985" y="777"/>
                            <mxPoint x="1730" y="855"/>
                            <mxPoint x="1590" y="826"/>
                            <mxPoint x="1470" y="876"/>
                        </Array>
                    </mxGeometry>
                </mxCell>
                <mxCell id="0So7Woajs3jKrN6fD4Gb-169" value="" style="edgeStyle=elbowEdgeStyle;elbow=vertical;html=1;rounded=0;endArrow=none;endFill=0;endSize=50;labelBackgroundColor=none;fontColor=#333333;strokeColor=#333333;exitX=0.5;exitY=0;exitDx=0;exitDy=0;entryX=0.803;entryY=0.983;entryDx=0;entryDy=0;entryPerimeter=0;" parent="0So7Woajs3jKrN6fD4Gb-1" source="0So7Woajs3jKrN6fD4Gb-160" target="0So7Woajs3jKrN6fD4Gb-139" edge="1">
                    <mxGeometry relative="1" as="geometry">
                        <mxPoint x="343" y="885.9999999999998" as="sourcePoint"/>
                        <mxPoint x="518" y="619" as="targetPoint"/>
                        <Array as="points">
                            <mxPoint x="518" y="801"/>
                            <mxPoint x="223" y="765"/>
                            <mxPoint x="995" y="787"/>
                            <mxPoint x="1740" y="865"/>
                            <mxPoint x="1600" y="836"/>
                            <mxPoint x="1480" y="886"/>
                        </Array>
                    </mxGeometry>
                </mxCell>
                <mxCell id="0So7Woajs3jKrN6fD4Gb-170" value="" style="edgeStyle=elbowEdgeStyle;elbow=vertical;html=1;rounded=0;endArrow=none;endFill=0;endSize=50;entryX=0.5;entryY=0;entryDx=0;entryDy=0;labelBackgroundColor=none;fontColor=#333333;strokeColor=#333333;exitX=0.451;exitY=1.081;exitDx=0;exitDy=0;exitPerimeter=0;" parent="0So7Woajs3jKrN6fD4Gb-1" source="0So7Woajs3jKrN6fD4Gb-134" target="0So7Woajs3jKrN6fD4Gb-71" edge="1">
                    <mxGeometry relative="1" as="geometry">
                        <mxPoint x="917.6600000000001" y="624.4000000000001" as="sourcePoint"/>
                        <mxPoint x="921" y="885.9999999999998" as="targetPoint"/>
                        <Array as="points">
                            <mxPoint x="913" y="767"/>
                            <mxPoint x="1658" y="845"/>
                            <mxPoint x="1518" y="816"/>
                            <mxPoint x="1398" y="866"/>
                        </Array>
                    </mxGeometry>
                </mxCell>
                <mxCell id="0So7Woajs3jKrN6fD4Gb-171" value="" style="edgeStyle=elbowEdgeStyle;elbow=vertical;html=1;rounded=0;endArrow=none;endFill=0;endSize=50;labelBackgroundColor=none;fontColor=#333333;strokeColor=#333333;exitX=0.5;exitY=0;exitDx=0;exitDy=0;entryX=0.268;entryY=1.004;entryDx=0;entryDy=0;entryPerimeter=0;" parent="0So7Woajs3jKrN6fD4Gb-1" source="0So7Woajs3jKrN6fD4Gb-135" target="0So7Woajs3jKrN6fD4Gb-144" edge="1">
                    <mxGeometry relative="1" as="geometry">
                        <mxPoint x="343" y="886" as="sourcePoint"/>
                        <mxPoint x="518" y="618.9999999999998" as="targetPoint"/>
                        <Array as="points">
                            <mxPoint x="613" y="330"/>
                            <mxPoint x="223" y="765"/>
                            <mxPoint x="995" y="787"/>
                            <mxPoint x="1740" y="865"/>
                            <mxPoint x="1600" y="836"/>
                            <mxPoint x="1480" y="886"/>
                        </Array>
                    </mxGeometry>
                </mxCell>
                <mxCell id="0So7Woajs3jKrN6fD4Gb-172" value="" style="edgeStyle=elbowEdgeStyle;elbow=vertical;html=1;rounded=0;endArrow=none;endFill=0;endSize=50;labelBackgroundColor=none;fontColor=#333333;strokeColor=#333333;exitX=0.5;exitY=0;exitDx=0;exitDy=0;entryX=0.652;entryY=1.051;entryDx=0;entryDy=0;entryPerimeter=0;" parent="0So7Woajs3jKrN6fD4Gb-1" source="0So7Woajs3jKrN6fD4Gb-130" target="0So7Woajs3jKrN6fD4Gb-144" edge="1">
                    <mxGeometry relative="1" as="geometry">
                        <mxPoint x="518" y="473" as="sourcePoint"/>
                        <mxPoint x="686.8499999999999" y="239.74000000000024" as="targetPoint"/>
                        <Array as="points">
                            <mxPoint x="831" y="331"/>
                            <mxPoint x="623" y="340"/>
                            <mxPoint x="233" y="775"/>
                            <mxPoint x="1005" y="797"/>
                            <mxPoint x="1750" y="875"/>
                            <mxPoint x="1610" y="846"/>
                            <mxPoint x="1490" y="896"/>
                        </Array>
                    </mxGeometry>
                </mxCell>
                <mxCell id="0So7Woajs3jKrN6fD4Gb-173" value="" style="edgeStyle=elbowEdgeStyle;elbow=vertical;html=1;rounded=0;endArrow=none;endFill=0;endSize=50;labelBackgroundColor=none;fontColor=#333333;strokeColor=#333333;exitX=0.5;exitY=0;exitDx=0;exitDy=0;entryX=0.832;entryY=1.004;entryDx=0;entryDy=0;entryPerimeter=0;" parent="0So7Woajs3jKrN6fD4Gb-1" source="0So7Woajs3jKrN6fD4Gb-145" target="0So7Woajs3jKrN6fD4Gb-144" edge="1">
                    <mxGeometry relative="1" as="geometry">
                        <mxPoint x="969" y="473" as="sourcePoint"/>
                        <mxPoint x="696.8499999999999" y="249.74000000000024" as="targetPoint"/>
                        <Array as="points">
                            <mxPoint x="1101" y="285"/>
                            <mxPoint x="633" y="350"/>
                            <mxPoint x="243" y="785"/>
                            <mxPoint x="1015" y="807"/>
                            <mxPoint x="1760" y="885"/>
                            <mxPoint x="1620" y="856"/>
                            <mxPoint x="1500" y="906"/>
                        </Array>
                    </mxGeometry>
                </mxCell>
            </root>
        </mxGraphModel>
    </diagram>
</mxfile>